<mxfile host="app.diagrams.net" modified="2024-05-08T22:35:27.875Z" agent="Mozilla/5.0 (Windows NT 10.0; Win64; x64) AppleWebKit/537.36 (KHTML, like Gecko) Chrome/124.0.0.0 Safari/537.36" version="24.3.0" etag="PMcxDkhyv1UXrkRW3rU1" type="device" pages="2">
  <diagram id="C5RBs43oDa-KdzZeNtuy" name="Page-1">
    <mxGraphModel dx="1257" dy="669" grid="1" gridSize="10" guides="1" tooltips="1" connect="1" arrows="1" fold="1" page="1" pageScale="1" pageWidth="827" pageHeight="1169" math="0" shadow="0">
      <root>
        <mxCell id="WIyWlLk6GJQsqaUBKTNV-0" />
        <mxCell id="WIyWlLk6GJQsqaUBKTNV-1" parent="WIyWlLk6GJQsqaUBKTNV-0" />
        <mxCell id="pP1rZEa4EN5fnGtOYd28-0" value="Empleado" style="swimlane;fontStyle=1;align=center;verticalAlign=top;childLayout=stackLayout;horizontal=1;startSize=26;horizontalStack=0;resizeParent=1;resizeParentMax=0;resizeLast=0;collapsible=1;marginBottom=0;" vertex="1" parent="WIyWlLk6GJQsqaUBKTNV-1">
          <mxGeometry x="120" y="200" width="200" height="190" as="geometry" />
        </mxCell>
        <mxCell id="pP1rZEa4EN5fnGtOYd28-1" value="- sueldoBruto : double" style="text;strokeColor=none;fillColor=none;align=left;verticalAlign=top;spacingLeft=4;spacingRight=4;overflow=hidden;rotatable=0;points=[[0,0.5],[1,0.5]];portConstraint=eastwest;" vertex="1" parent="pP1rZEa4EN5fnGtOYd28-0">
          <mxGeometry y="26" width="200" height="26" as="geometry" />
        </mxCell>
        <mxCell id="pP1rZEa4EN5fnGtOYd28-2" value="- cantidadDeHijos : int" style="text;strokeColor=none;fillColor=none;align=left;verticalAlign=top;spacingLeft=4;spacingRight=4;overflow=hidden;rotatable=0;points=[[0,0.5],[1,0.5]];portConstraint=eastwest;" vertex="1" parent="pP1rZEa4EN5fnGtOYd28-0">
          <mxGeometry y="52" width="200" height="26" as="geometry" />
        </mxCell>
        <mxCell id="pP1rZEa4EN5fnGtOYd28-3" value="- nombre : String" style="text;strokeColor=none;fillColor=none;align=left;verticalAlign=top;spacingLeft=4;spacingRight=4;overflow=hidden;rotatable=0;points=[[0,0.5],[1,0.5]];portConstraint=eastwest;" vertex="1" parent="pP1rZEa4EN5fnGtOYd28-0">
          <mxGeometry y="78" width="200" height="26" as="geometry" />
        </mxCell>
        <mxCell id="pP1rZEa4EN5fnGtOYd28-4" value="- diaDeIngreso : Date" style="text;strokeColor=none;fillColor=none;align=left;verticalAlign=top;spacingLeft=4;spacingRight=4;overflow=hidden;rotatable=0;points=[[0,0.5],[1,0.5]];portConstraint=eastwest;" vertex="1" parent="pP1rZEa4EN5fnGtOYd28-0">
          <mxGeometry y="104" width="200" height="26" as="geometry" />
        </mxCell>
        <mxCell id="pP1rZEa4EN5fnGtOYd28-5" value="" style="line;strokeWidth=1;fillColor=none;align=left;verticalAlign=middle;spacingTop=-1;spacingLeft=3;spacingRight=3;rotatable=0;labelPosition=right;points=[];portConstraint=eastwest;strokeColor=inherit;" vertex="1" parent="pP1rZEa4EN5fnGtOYd28-0">
          <mxGeometry y="130" width="200" height="8" as="geometry" />
        </mxCell>
        <mxCell id="pP1rZEa4EN5fnGtOYd28-6" value="+ setCategoria(Categoria) : void" style="text;strokeColor=none;fillColor=none;align=left;verticalAlign=top;spacingLeft=4;spacingRight=4;overflow=hidden;rotatable=0;points=[[0,0.5],[1,0.5]];portConstraint=eastwest;" vertex="1" parent="pP1rZEa4EN5fnGtOYd28-0">
          <mxGeometry y="138" width="200" height="26" as="geometry" />
        </mxCell>
        <mxCell id="pP1rZEa4EN5fnGtOYd28-7" value="+ calcularSueldoNeto() : double" style="text;strokeColor=none;fillColor=none;align=left;verticalAlign=top;spacingLeft=4;spacingRight=4;overflow=hidden;rotatable=0;points=[[0,0.5],[1,0.5]];portConstraint=eastwest;" vertex="1" parent="pP1rZEa4EN5fnGtOYd28-0">
          <mxGeometry y="164" width="200" height="26" as="geometry" />
        </mxCell>
        <mxCell id="pP1rZEa4EN5fnGtOYd28-8" value="Categoria" style="swimlane;fontStyle=3;align=center;verticalAlign=top;childLayout=stackLayout;horizontal=1;startSize=26;horizontalStack=0;resizeParent=1;resizeParentMax=0;resizeLast=0;collapsible=1;marginBottom=0;whiteSpace=wrap;html=1;" vertex="1" parent="WIyWlLk6GJQsqaUBKTNV-1">
          <mxGeometry x="480" y="265" width="200" height="60" as="geometry" />
        </mxCell>
        <mxCell id="pP1rZEa4EN5fnGtOYd28-9" value="" style="line;strokeWidth=1;fillColor=none;align=left;verticalAlign=middle;spacingTop=-1;spacingLeft=3;spacingRight=3;rotatable=0;labelPosition=right;points=[];portConstraint=eastwest;strokeColor=inherit;" vertex="1" parent="pP1rZEa4EN5fnGtOYd28-8">
          <mxGeometry y="26" width="200" height="8" as="geometry" />
        </mxCell>
        <mxCell id="pP1rZEa4EN5fnGtOYd28-10" value="+ Calcular(Empleado) : double" style="text;strokeColor=none;fillColor=none;align=left;verticalAlign=top;spacingLeft=4;spacingRight=4;overflow=hidden;rotatable=0;points=[[0,0.5],[1,0.5]];portConstraint=eastwest;whiteSpace=wrap;html=1;fontStyle=2" vertex="1" parent="pP1rZEa4EN5fnGtOYd28-8">
          <mxGeometry y="34" width="200" height="26" as="geometry" />
        </mxCell>
        <mxCell id="pP1rZEa4EN5fnGtOYd28-11" value="CategoriaA" style="swimlane;fontStyle=1;align=center;verticalAlign=top;childLayout=stackLayout;horizontal=1;startSize=26;horizontalStack=0;resizeParent=1;resizeParentMax=0;resizeLast=0;collapsible=1;marginBottom=0;whiteSpace=wrap;html=1;" vertex="1" parent="WIyWlLk6GJQsqaUBKTNV-1">
          <mxGeometry x="240" y="480" width="200" height="60" as="geometry" />
        </mxCell>
        <mxCell id="pP1rZEa4EN5fnGtOYd28-12" value="" style="line;strokeWidth=1;fillColor=none;align=left;verticalAlign=middle;spacingTop=-1;spacingLeft=3;spacingRight=3;rotatable=0;labelPosition=right;points=[];portConstraint=eastwest;strokeColor=inherit;" vertex="1" parent="pP1rZEa4EN5fnGtOYd28-11">
          <mxGeometry y="26" width="200" height="8" as="geometry" />
        </mxCell>
        <mxCell id="pP1rZEa4EN5fnGtOYd28-13" value="+ Calcular(Empleado) : double" style="text;strokeColor=none;fillColor=none;align=left;verticalAlign=top;spacingLeft=4;spacingRight=4;overflow=hidden;rotatable=0;points=[[0,0.5],[1,0.5]];portConstraint=eastwest;whiteSpace=wrap;html=1;fontStyle=0" vertex="1" parent="pP1rZEa4EN5fnGtOYd28-11">
          <mxGeometry y="34" width="200" height="26" as="geometry" />
        </mxCell>
        <mxCell id="pP1rZEa4EN5fnGtOYd28-14" value="CategoriaB" style="swimlane;fontStyle=1;align=center;verticalAlign=top;childLayout=stackLayout;horizontal=1;startSize=26;horizontalStack=0;resizeParent=1;resizeParentMax=0;resizeLast=0;collapsible=1;marginBottom=0;whiteSpace=wrap;html=1;" vertex="1" parent="WIyWlLk6GJQsqaUBKTNV-1">
          <mxGeometry x="480" y="480" width="200" height="60" as="geometry" />
        </mxCell>
        <mxCell id="pP1rZEa4EN5fnGtOYd28-15" value="" style="line;strokeWidth=1;fillColor=none;align=left;verticalAlign=middle;spacingTop=-1;spacingLeft=3;spacingRight=3;rotatable=0;labelPosition=right;points=[];portConstraint=eastwest;strokeColor=inherit;" vertex="1" parent="pP1rZEa4EN5fnGtOYd28-14">
          <mxGeometry y="26" width="200" height="8" as="geometry" />
        </mxCell>
        <mxCell id="pP1rZEa4EN5fnGtOYd28-16" value="+ Calcular(Empleado) : double" style="text;strokeColor=none;fillColor=none;align=left;verticalAlign=top;spacingLeft=4;spacingRight=4;overflow=hidden;rotatable=0;points=[[0,0.5],[1,0.5]];portConstraint=eastwest;whiteSpace=wrap;html=1;fontStyle=0" vertex="1" parent="pP1rZEa4EN5fnGtOYd28-14">
          <mxGeometry y="34" width="200" height="26" as="geometry" />
        </mxCell>
        <mxCell id="pP1rZEa4EN5fnGtOYd28-17" value="CategoriaC" style="swimlane;fontStyle=1;align=center;verticalAlign=top;childLayout=stackLayout;horizontal=1;startSize=26;horizontalStack=0;resizeParent=1;resizeParentMax=0;resizeLast=0;collapsible=1;marginBottom=0;whiteSpace=wrap;html=1;" vertex="1" parent="WIyWlLk6GJQsqaUBKTNV-1">
          <mxGeometry x="720" y="480" width="200" height="60" as="geometry" />
        </mxCell>
        <mxCell id="pP1rZEa4EN5fnGtOYd28-18" value="" style="line;strokeWidth=1;fillColor=none;align=left;verticalAlign=middle;spacingTop=-1;spacingLeft=3;spacingRight=3;rotatable=0;labelPosition=right;points=[];portConstraint=eastwest;strokeColor=inherit;" vertex="1" parent="pP1rZEa4EN5fnGtOYd28-17">
          <mxGeometry y="26" width="200" height="8" as="geometry" />
        </mxCell>
        <mxCell id="pP1rZEa4EN5fnGtOYd28-19" value="+ Calcular(Empleado) : double" style="text;strokeColor=none;fillColor=none;align=left;verticalAlign=top;spacingLeft=4;spacingRight=4;overflow=hidden;rotatable=0;points=[[0,0.5],[1,0.5]];portConstraint=eastwest;whiteSpace=wrap;html=1;fontStyle=0" vertex="1" parent="pP1rZEa4EN5fnGtOYd28-17">
          <mxGeometry y="34" width="200" height="26" as="geometry" />
        </mxCell>
        <mxCell id="pP1rZEa4EN5fnGtOYd28-20" value="" style="endArrow=block;endSize=16;endFill=0;html=1;rounded=0;edgeStyle=elbowEdgeStyle;elbow=vertical;dashed=1;dashPattern=8 8;" edge="1" parent="WIyWlLk6GJQsqaUBKTNV-1" source="pP1rZEa4EN5fnGtOYd28-11" target="pP1rZEa4EN5fnGtOYd28-8">
          <mxGeometry width="160" relative="1" as="geometry">
            <mxPoint x="400" y="420" as="sourcePoint" />
            <mxPoint x="560" y="420" as="targetPoint" />
          </mxGeometry>
        </mxCell>
        <mxCell id="pP1rZEa4EN5fnGtOYd28-21" value="" style="endArrow=block;endSize=16;endFill=0;html=1;rounded=0;edgeStyle=elbowEdgeStyle;elbow=vertical;dashed=1;dashPattern=8 8;" edge="1" parent="WIyWlLk6GJQsqaUBKTNV-1" source="pP1rZEa4EN5fnGtOYd28-14" target="pP1rZEa4EN5fnGtOYd28-8">
          <mxGeometry width="160" relative="1" as="geometry">
            <mxPoint x="400" y="420" as="sourcePoint" />
            <mxPoint x="560" y="420" as="targetPoint" />
          </mxGeometry>
        </mxCell>
        <mxCell id="pP1rZEa4EN5fnGtOYd28-22" value="" style="endArrow=block;endSize=16;endFill=0;html=1;rounded=0;edgeStyle=elbowEdgeStyle;elbow=vertical;dashed=1;dashPattern=8 8;" edge="1" parent="WIyWlLk6GJQsqaUBKTNV-1" source="pP1rZEa4EN5fnGtOYd28-17" target="pP1rZEa4EN5fnGtOYd28-8">
          <mxGeometry width="160" relative="1" as="geometry">
            <mxPoint x="400" y="420" as="sourcePoint" />
            <mxPoint x="560" y="420" as="targetPoint" />
          </mxGeometry>
        </mxCell>
        <mxCell id="pP1rZEa4EN5fnGtOYd28-23" value="" style="endArrow=open;endFill=1;endSize=12;html=1;rounded=0;" edge="1" parent="WIyWlLk6GJQsqaUBKTNV-1" source="pP1rZEa4EN5fnGtOYd28-0" target="pP1rZEa4EN5fnGtOYd28-8">
          <mxGeometry width="160" relative="1" as="geometry">
            <mxPoint x="400" y="420" as="sourcePoint" />
            <mxPoint x="560" y="420" as="targetPoint" />
          </mxGeometry>
        </mxCell>
        <mxCell id="pP1rZEa4EN5fnGtOYd28-24" value="- categoria" style="edgeLabel;html=1;align=center;verticalAlign=middle;resizable=0;points=[];" connectable="0" vertex="1" parent="pP1rZEa4EN5fnGtOYd28-23">
          <mxGeometry x="0.1083" y="-1" relative="1" as="geometry">
            <mxPoint x="-11" y="8" as="offset" />
          </mxGeometry>
        </mxCell>
      </root>
    </mxGraphModel>
  </diagram>
  <diagram id="_8xOTMJ4PYvgQDdpCsdE" name="Página-2">
    <mxGraphModel dx="2689" dy="551" grid="1" gridSize="10" guides="1" tooltips="1" connect="1" arrows="1" fold="1" page="1" pageScale="1" pageWidth="1654" pageHeight="2336" math="0" shadow="0">
      <root>
        <mxCell id="0" />
        <mxCell id="1" parent="0" />
        <mxCell id="URQwEl_wyxtY6JFcrfkk-1" value="" style="shape=umlLifeline;perimeter=lifelinePerimeter;whiteSpace=wrap;html=1;container=1;dropTarget=0;collapsible=0;recursiveResize=0;outlineConnect=0;portConstraint=eastwest;newEdgeStyle={&quot;curved&quot;:0,&quot;rounded&quot;:0};participant=umlActor;" vertex="1" parent="1">
          <mxGeometry x="-40" y="130" width="20" height="460" as="geometry" />
        </mxCell>
        <mxCell id="URQwEl_wyxtY6JFcrfkk-2" value="e :&lt;div&gt;Empleado&lt;/div&gt;" style="shape=umlLifeline;perimeter=lifelinePerimeter;whiteSpace=wrap;html=1;container=1;dropTarget=0;collapsible=0;recursiveResize=0;outlineConnect=0;portConstraint=eastwest;newEdgeStyle={&quot;curved&quot;:0,&quot;rounded&quot;:0};" vertex="1" parent="1">
          <mxGeometry x="170" y="130" width="100" height="480" as="geometry" />
        </mxCell>
        <mxCell id="IZkD11avFHTSqO_SostI-1" value="" style="html=1;points=[[0,0,0,0,5],[0,1,0,0,-5],[1,0,0,0,5],[1,1,0,0,-5]];perimeter=orthogonalPerimeter;outlineConnect=0;targetShapes=umlLifeline;portConstraint=eastwest;newEdgeStyle={&quot;curved&quot;:0,&quot;rounded&quot;:0};" vertex="1" parent="URQwEl_wyxtY6JFcrfkk-2">
          <mxGeometry x="45" y="50" width="10" height="410" as="geometry" />
        </mxCell>
        <mxCell id="lO-GSrmrem1qYRVZpTSX-4" value="" style="html=1;points=[[0,0,0,0,5],[0,1,0,0,-5],[1,0,0,0,5],[1,1,0,0,-5]];perimeter=orthogonalPerimeter;outlineConnect=0;targetShapes=umlLifeline;portConstraint=eastwest;newEdgeStyle={&quot;curved&quot;:0,&quot;rounded&quot;:0};" vertex="1" parent="URQwEl_wyxtY6JFcrfkk-2">
          <mxGeometry x="53" y="102" width="10" height="38" as="geometry" />
        </mxCell>
        <mxCell id="URQwEl_wyxtY6JFcrfkk-3" value="c :&amp;nbsp;&lt;div&gt;CategoriaB&lt;/div&gt;" style="shape=umlLifeline;perimeter=lifelinePerimeter;whiteSpace=wrap;html=1;container=1;dropTarget=0;collapsible=0;recursiveResize=0;outlineConnect=0;portConstraint=eastwest;newEdgeStyle={&quot;curved&quot;:0,&quot;rounded&quot;:0};" vertex="1" parent="1">
          <mxGeometry x="360" y="130" width="100" height="480" as="geometry" />
        </mxCell>
        <mxCell id="lO-GSrmrem1qYRVZpTSX-1" value="" style="html=1;points=[[0,0,0,0,5],[0,1,0,0,-5],[1,0,0,0,5],[1,1,0,0,-5]];perimeter=orthogonalPerimeter;outlineConnect=0;targetShapes=umlLifeline;portConstraint=eastwest;newEdgeStyle={&quot;curved&quot;:0,&quot;rounded&quot;:0};" vertex="1" parent="URQwEl_wyxtY6JFcrfkk-3">
          <mxGeometry x="45" y="70" width="10" height="360" as="geometry" />
        </mxCell>
        <mxCell id="lO-GSrmrem1qYRVZpTSX-20" value="sueldoNeto = sueldo - ((cantHijos*sueldoBrutoAnual)/100)" style="html=1;align=left;spacingLeft=2;endArrow=block;rounded=0;edgeStyle=orthogonalEdgeStyle;curved=0;rounded=0;" edge="1" parent="URQwEl_wyxtY6JFcrfkk-3" target="lO-GSrmrem1qYRVZpTSX-1">
          <mxGeometry relative="1" as="geometry">
            <mxPoint x="55" y="306.0588235294117" as="sourcePoint" />
            <Array as="points">
              <mxPoint x="80" y="306" />
              <mxPoint x="80" y="320" />
            </Array>
            <mxPoint x="55" y="326.0588235294117" as="targetPoint" />
          </mxGeometry>
        </mxCell>
        <mxCell id="IZkD11avFHTSqO_SostI-2" value="calcularSueldoNeto()" style="html=1;verticalAlign=bottom;endArrow=block;curved=0;rounded=0;entryX=0;entryY=0;entryDx=0;entryDy=5;" edge="1" target="IZkD11avFHTSqO_SostI-1" parent="1" source="URQwEl_wyxtY6JFcrfkk-1">
          <mxGeometry relative="1" as="geometry">
            <mxPoint x="145" y="185" as="sourcePoint" />
          </mxGeometry>
        </mxCell>
        <mxCell id="IZkD11avFHTSqO_SostI-3" value="SueldoNeto" style="html=1;verticalAlign=bottom;endArrow=open;dashed=1;endSize=8;curved=0;rounded=0;exitX=0;exitY=1;exitDx=0;exitDy=-5;" edge="1" source="IZkD11avFHTSqO_SostI-1" parent="1" target="URQwEl_wyxtY6JFcrfkk-1">
          <mxGeometry relative="1" as="geometry">
            <mxPoint x="145" y="255" as="targetPoint" />
          </mxGeometry>
        </mxCell>
        <mxCell id="lO-GSrmrem1qYRVZpTSX-2" value="Calcular(Empleado)" style="html=1;verticalAlign=bottom;endArrow=block;curved=0;rounded=0;entryX=0;entryY=0;entryDx=0;entryDy=5;" edge="1" target="lO-GSrmrem1qYRVZpTSX-1" parent="1" source="URQwEl_wyxtY6JFcrfkk-2">
          <mxGeometry relative="1" as="geometry">
            <mxPoint x="335" y="205" as="sourcePoint" />
          </mxGeometry>
        </mxCell>
        <mxCell id="lO-GSrmrem1qYRVZpTSX-3" value="SueldoNeto" style="html=1;verticalAlign=bottom;endArrow=open;dashed=1;endSize=8;curved=0;rounded=0;exitX=0;exitY=1;exitDx=0;exitDy=-5;" edge="1" parent="1">
          <mxGeometry relative="1" as="geometry">
            <mxPoint x="219.32352941176532" y="556.9999999999989" as="targetPoint" />
            <mxPoint x="405" y="556.9999999999989" as="sourcePoint" />
          </mxGeometry>
        </mxCell>
        <mxCell id="lO-GSrmrem1qYRVZpTSX-5" value="getSueldoBruto()" style="html=1;verticalAlign=bottom;endArrow=block;curved=0;rounded=0;entryX=1;entryY=0;entryDx=0;entryDy=5;" edge="1" target="lO-GSrmrem1qYRVZpTSX-4" parent="1" source="URQwEl_wyxtY6JFcrfkk-3">
          <mxGeometry relative="1" as="geometry">
            <mxPoint x="303" y="237" as="sourcePoint" />
          </mxGeometry>
        </mxCell>
        <mxCell id="lO-GSrmrem1qYRVZpTSX-6" value="&amp;nbsp;sueldo" style="html=1;verticalAlign=bottom;endArrow=open;dashed=1;endSize=8;curved=0;rounded=0;exitX=1;exitY=1;exitDx=0;exitDy=-5;" edge="1" source="lO-GSrmrem1qYRVZpTSX-4" parent="1" target="URQwEl_wyxtY6JFcrfkk-3">
          <mxGeometry relative="1" as="geometry">
            <mxPoint x="303" y="307" as="targetPoint" />
          </mxGeometry>
        </mxCell>
        <mxCell id="lO-GSrmrem1qYRVZpTSX-7" value="" style="html=1;points=[[0,0,0,0,5],[0,1,0,0,-5],[1,0,0,0,5],[1,1,0,0,-5]];perimeter=orthogonalPerimeter;outlineConnect=0;targetShapes=umlLifeline;portConstraint=eastwest;newEdgeStyle={&quot;curved&quot;:0,&quot;rounded&quot;:0};" vertex="1" parent="1">
          <mxGeometry x="222" y="289" width="10" height="38" as="geometry" />
        </mxCell>
        <mxCell id="lO-GSrmrem1qYRVZpTSX-8" value="getNombre()" style="html=1;verticalAlign=bottom;endArrow=block;curved=0;rounded=0;entryX=1;entryY=0;entryDx=0;entryDy=5;" edge="1" parent="1" target="lO-GSrmrem1qYRVZpTSX-7">
          <mxGeometry relative="1" as="geometry">
            <mxPoint x="409" y="294" as="sourcePoint" />
          </mxGeometry>
        </mxCell>
        <mxCell id="lO-GSrmrem1qYRVZpTSX-9" value="nombre" style="html=1;verticalAlign=bottom;endArrow=open;dashed=1;endSize=8;curved=0;rounded=0;exitX=1;exitY=1;exitDx=0;exitDy=-5;" edge="1" parent="1" source="lO-GSrmrem1qYRVZpTSX-7">
          <mxGeometry relative="1" as="geometry">
            <mxPoint x="409" y="322" as="targetPoint" />
          </mxGeometry>
        </mxCell>
        <mxCell id="lO-GSrmrem1qYRVZpTSX-10" value="alt" style="shape=umlFrame;whiteSpace=wrap;html=1;pointerEvents=0;" vertex="1" parent="1">
          <mxGeometry x="30" y="340" width="720" height="200" as="geometry" />
        </mxCell>
        <mxCell id="lO-GSrmrem1qYRVZpTSX-11" value="nombre[0]= &#39;A&#39; || nombre[0]= &#39;E&#39; ||&lt;div style=&quot;font-size: 10px;&quot;&gt;nombre[0]=&#39;I&#39; || nombre[0]=&#39;O&#39; ||&lt;/div&gt;&lt;div style=&quot;font-size: 10px;&quot;&gt;nombre[0]=&#39;U&#39;&lt;/div&gt;" style="text;html=1;align=center;verticalAlign=middle;resizable=0;points=[];autosize=1;strokeColor=none;fillColor=none;fontSize=10;" vertex="1" parent="1">
          <mxGeometry x="30" y="398" width="170" height="50" as="geometry" />
        </mxCell>
        <mxCell id="lO-GSrmrem1qYRVZpTSX-15" value="" style="html=1;points=[[0,0,0,0,5],[0,1,0,0,-5],[1,0,0,0,5],[1,1,0,0,-5]];perimeter=orthogonalPerimeter;outlineConnect=0;targetShapes=umlLifeline;portConstraint=eastwest;newEdgeStyle={&quot;curved&quot;:0,&quot;rounded&quot;:0};" vertex="1" parent="1">
          <mxGeometry x="222" y="360" width="10" height="38" as="geometry" />
        </mxCell>
        <mxCell id="lO-GSrmrem1qYRVZpTSX-16" value="getCantHijos()" style="html=1;verticalAlign=bottom;endArrow=block;curved=0;rounded=0;entryX=1;entryY=0;entryDx=0;entryDy=5;" edge="1" parent="1" target="lO-GSrmrem1qYRVZpTSX-15">
          <mxGeometry relative="1" as="geometry">
            <mxPoint x="409" y="365" as="sourcePoint" />
          </mxGeometry>
        </mxCell>
        <mxCell id="lO-GSrmrem1qYRVZpTSX-17" value="cantHijos" style="html=1;verticalAlign=bottom;endArrow=open;dashed=1;endSize=8;curved=0;rounded=0;exitX=1;exitY=1;exitDx=0;exitDy=-5;" edge="1" parent="1" source="lO-GSrmrem1qYRVZpTSX-15">
          <mxGeometry relative="1" as="geometry">
            <mxPoint x="409" y="393" as="targetPoint" />
          </mxGeometry>
        </mxCell>
        <mxCell id="lO-GSrmrem1qYRVZpTSX-19" value="sueldoBrutoAnual = sueldo*12" style="html=1;align=left;spacingLeft=2;endArrow=block;rounded=0;edgeStyle=orthogonalEdgeStyle;curved=0;rounded=0;" edge="1" target="lO-GSrmrem1qYRVZpTSX-1" parent="1">
          <mxGeometry relative="1" as="geometry">
            <mxPoint x="414" y="411" as="sourcePoint" />
            <Array as="points">
              <mxPoint x="444" y="411" />
              <mxPoint x="444" y="420" />
            </Array>
            <mxPoint x="419" y="441.0588235294117" as="targetPoint" />
          </mxGeometry>
        </mxCell>
        <mxCell id="lO-GSrmrem1qYRVZpTSX-21" value="" style="endArrow=none;dashed=1;html=1;rounded=0;entryX=1.001;entryY=0.698;entryDx=0;entryDy=0;entryPerimeter=0;exitX=0;exitY=0.698;exitDx=0;exitDy=0;exitPerimeter=0;" edge="1" parent="1" source="lO-GSrmrem1qYRVZpTSX-10" target="lO-GSrmrem1qYRVZpTSX-10">
          <mxGeometry width="50" height="50" relative="1" as="geometry">
            <mxPoint x="570" y="530" as="sourcePoint" />
            <mxPoint x="620" y="480" as="targetPoint" />
          </mxGeometry>
        </mxCell>
        <mxCell id="lO-GSrmrem1qYRVZpTSX-22" value="sueldoNeto = sueldo" style="html=1;align=left;spacingLeft=2;endArrow=block;rounded=0;edgeStyle=orthogonalEdgeStyle;curved=0;rounded=0;" edge="1" parent="1">
          <mxGeometry relative="1" as="geometry">
            <mxPoint x="415" y="501.0588235294117" as="sourcePoint" />
            <Array as="points">
              <mxPoint x="440" y="501" />
              <mxPoint x="440" y="515" />
            </Array>
            <mxPoint x="415" y="515" as="targetPoint" />
          </mxGeometry>
        </mxCell>
      </root>
    </mxGraphModel>
  </diagram>
</mxfile>
